<?xml version="1.0" encoding="UTF-8"?><svg xmlns="http://www.w3.org/2000/svg" xmlns:xlink="http://www.w3.org/1999/xlink" clip-rule="evenodd" fill-rule="evenodd" height="335.0" image-rendering="optimizeQuality" preserveAspectRatio="xMidYMid meet" shape-rendering="geometricPrecision" text-rendering="geometricPrecision" version="1.0" viewBox="59.0 57.0 332.0 335.0" width="332.0" zoomAndPan="magnify"><g><g><g id="change1_1"><path d="M75 229c0,-2 0,-5 0,-8 0,-3 0,-6 0,-8 0,-7 0,-15 2,-23 1,-5 2,-10 3,-14l-1 -1 5 -11c1,-5 4,-10 6,-15l1 -2 0 0 3 -6 0 -1c1,-1 1,-1 1,-2l5 -10 1 1 0 0 0 0 1 -1c0,0 0,-1 1,-1l3 -5 0 0c3,-4 6,-7 9,-11 1,-1 1,-2 3,-3l0 0 1 -1 0 -1 0 0 14 -12 9 -8 0 0c3,-1 6,-3 9,-5 8,-5 16,-9 22,-11l2 -1 0 0 1 0c1,-1 3,-1 4,-2l0 0 1 0 5 -2 1 0c16,-5 36,-8 55,-6 19,1 39,5 54,12l0 0 1 1c1,0 2,1 2,1l10 4 0 1 4 2c2,1 5,3 8,5l0 0 0 0 0 0 6 4 0 0c4,3 8,7 12,10 5,4 9,9 12,13l2 1c1,2 3,4 5,6 2,3 3,5 4,7l1 1 1 1 10 16 1 3 0 1 1 0c0,1 1,3 1,4l0 0 0 0 0 0 1 3 1 0 3 7 3 9 -1 0 1 2 0 1c2,5 3,10 4,15 1,5 1,11 2,16 0,5 0,10 0,15 0,5 0,11 -1,15l0 0c-1,3 -1,6 -2,9 0,4 -1,7 -1,9 -1,3 -2,6 -3,9 -1,4 -2,7 -3,9l0 1 0 0 0 0 -10 21 0 1 0 0 -1 1c0,0 -1,1 -2,3 -1,1 -1,3 -2,4 -1,1 -2,3 -3,4 -1,2 -2,3 -3,4l-1 1 0 1 -2 2 0 1 0 0 -1 0 0 0 0 0c-11,15 -30,34 -53,43l-11 6 0 -1 -1 0c-2,1 -4,2 -7,3 -3,1 -6,2 -7,2l0 0c-3,1 -4,1 -6,2l0 0 -10 2 -1 0 -1 0 -3 1c-2,0 -3,0 -4,0 -3,1 -7,1 -11,1 -4,0 -7,0 -11,0 -4,0 -8,0 -12,0 -3,-1 -7,-1 -10,-2 -4,0 -6,-1 -9,-1 -2,-1 -4,-1 -7,-2l0 0 0 0 0 0 -5 -1c-2,-1 -5,-2 -7,-3l0 0 0 0 0 0c-1,0 -1,0 -3,-1l0 0 0 0 0 0 0 0 0 0 -11 -4c-1,-1 -2,-1 -3,-2 -1,1 -3,1 -4,2 -2,0 -4,1 -5,1l0 0 0 0 0 0c-4,1 -7,3 -10,3l0 0 -85 28c8,-23 13,-37 20,-59l1 -1 1 -3c1,-5 3,-10 5,-15l7 -21 0 0c0,-1 0,-1 0,-2 0,-1 -1,-2 -1,-3 -1,-1 -1,-3 -2,-4l-1 -2 0 0 -1 -2c-1,-2 -2,-5 -3,-8 -1,-3 -2,-6 -3,-9 -1,-3 -2,-6 -3,-10 -1,-3 -2,-7 -2,-9 0,-2 -1,-5 -1,-7 0,-3 0,-5 -1,-8z" fill="#093" fill-rule="nonzero"/></g><g id="change2_1"><path d="M115 216c0,-7 1,-13 2,-19 2,-8 4,-16 7,-23l2 -6c1,-1 1,-3 2,-5 1,-1 2,-3 3,-4 1,-3 3,-6 5,-9 2,-3 4,-6 7,-9 3,-4 7,-7 10,-11 8,-7 17,-13 26,-18 22,-11 44,-15 68,-12 12,1 19,4 29,7 1,1 2,1 3,1 4,2 8,4 12,6 6,4 12,8 17,12l10 9c1,2 3,4 5,6 1,1 2,3 3,4 1,1 1,1 2,2 2,4 6,10 8,13 4,8 5,10 8,18 7,20 8,44 3,65 -3,12 -3,11 -7,22 -2,3 -3,6 -5,9 -2,3 -4,6 -6,9 -1,2 -2,3 -3,4l-3 5c-3,2 -6,7 -9,9l-6 5c-2,3 -5,4 -8,7 -5,3 -13,8 -19,10 -2,1 -3,2 -5,2 -6,3 -16,6 -23,7 -4,1 -8,1 -13,1l-7 1c-14,0 -26,-3 -38,-7 -4,-1 -10,-3 -13,-5l-12 -6c0,-1 -1,-2 -2,-2l-11 4c-4,1 -9,2 -13,4 -5,2 -12,4 -17,5 -1,1 -2,1 -3,2 0,-2 1,-4 1,-6l3 -8c1,-5 4,-11 5,-16 1,-3 5,-11 5,-14l-7 -10c0,-1 0,-1 -1,-2 -1,-2 -2,-3 -3,-6l-8 -20c-2,-10 -4,-20 -4,-31zm-23 -3c0,9 0,20 2,28 1,9 5,23 9,32 2,4 4,8 6,12 4,6 3,3 0,13l-7 22c-3,6 -5,12 -7,18l-8 25c0,1 0,1 -1,2 2,0 24,-7 27,-8l27 -9c5,-1 13,-5 18,-6 5,-1 5,-3 8,-1 2,1 3,1 4,2 2,1 4,2 6,3l4 2c1,0 2,0 2,0 4,1 6,3 9,3 8,2 11,3 19,5 13,2 27,2 40,1 3,-1 5,-1 8,-2 2,0 5,0 7,-1 9,-2 18,-5 26,-9 2,-1 4,-2 6,-3 1,0 2,-1 3,-1l8 -5c4,-2 6,-4 9,-7 2,-1 5,-3 7,-4 0,-1 1,-2 2,-2 1,-1 1,-2 2,-2l15 -16c1,-1 1,-1 1,-1l3 -4c3,-4 6,-10 9,-14l9 -21c4,-10 7,-21 8,-32 3,-18 1,-37 -4,-55 -1,-2 -1,-4 -2,-7 -2,-4 -3,-8 -5,-12 -1,-1 -1,-2 -1,-3 -1,-1 -1,-2 -2,-3l-10 -16c-2,-5 -5,-9 -9,-13 -1,0 -1,-1 -2,-2 -1,-2 -3,-3 -4,-4 -2,-3 -4,-5 -7,-7 -1,-1 -1,-1 -2,-2l-7 -6c-1,0 -2,-1 -3,-2 -4,-2 -7,-4 -11,-6l-5 -4c-2,0 -4,-2 -6,-3 -2,0 -4,-1 -6,-2l-20 -7c-2,0 -4,-1 -7,-1 -10,-3 -20,-3 -31,-3 -12,0 -26,2 -37,6l-6 2c-3,1 -4,2 -7,3 -4,1 -8,3 -11,5 -3,1 -6,3 -9,5 -4,2 -11,7 -15,10l-13 13 -10 11c-3,3 -5,7 -7,10 -2,3 -4,6 -5,8l-3 6c-2,5 -5,10 -6,15 -1,1 -1,2 -1,4 -3,7 -6,17 -6,24 -1,6 -1,11 -1,16z" fill="#fff"/></g><g id="change2_2"><path d="M162 181c0,6 1,12 3,17 1,2 2,5 2,6 4,8 5,10 10,17l7 10c1,1 1,2 2,3 0,1 1,1 2,2 0,1 1,2 2,3l6 7c2,3 12,12 15,15 1,0 2,1 3,2 1,0 1,1 2,2 1,0 2,1 3,1 3,3 7,5 11,7 2,1 3,2 6,3l12 5c2,1 4,2 6,2 13,5 13,5 25,3 2,0 3,0 4,-1 6,-2 10,-4 15,-8 2,-2 4,-4 5,-6 1,-3 3,-11 3,-15 0,-3 0,-4 -5,-7 -2,0 -9,-5 -11,-6 -4,-1 -16,-9 -19,-9 -3,0 -5,3 -7,6 -1,1 -1,2 -2,3 -1,1 -1,1 -2,2 -1,1 -1,1 -2,2 -1,1 -3,3 -4,5 -2,1 -5,1 -7,0l-17 -10c-6,-4 -8,-6 -14,-12 -4,-4 -8,-10 -11,-15 -1,-1 -6,-9 -6,-11 0,-2 3,-5 5,-7l3 -4c8,-8 4,-11 1,-21 -2,-5 -5,-12 -7,-17 -2,-5 -3,-7 -8,-7 -5,0 -12,-3 -17,4 -1,1 -1,0 -2,1 -2,2 -4,4 -5,6 -4,6 -7,14 -7,22z" fill="#fff"/></g></g></g></svg>